<svg width="223" height="149" viewBox="0 0 223 149" fill="none" xmlns="http://www.w3.org/2000/svg">
<path d="M22.5586 21.9062V93H5.41992V21.9062H22.5586ZM64.9902 21.9062L37.4512 57.9414L21.3379 75.5684L18.2129 59.8457L28.5156 44.2207L43.8477 21.9062H64.9902ZM44.7266 93L26.3672 60.9688L39.6973 51.1543L64.9902 93H44.7266ZM117.285 50.1289V63.3125H80.8105V50.1289H117.285ZM86.5234 21.9062V93H69.3848V21.9062H86.5234ZM128.809 21.9062V93H111.719V21.9062H128.809ZM188.623 79.8164V93H150.732V79.8164H188.623ZM156.836 21.9062V93H139.697V21.9062H156.836ZM183.74 50.1289V62.873H150.732V50.1289H183.74ZM188.77 21.9062V35.1387H150.732V21.9062H188.77ZM158.203 18.1953L167.871 2.86328H185.254L171.631 18.1953H158.203Z" fill="#A855F7"/>
<path d="M58.2969 94.8594V145.25H48.8828V86.7344H57.5547L58.2969 94.8594ZM85.8359 107.477V108.297C85.8359 111.37 85.4714 114.221 84.7422 116.852C84.0391 119.456 82.9844 121.734 81.5781 123.688C80.1979 125.615 78.4922 127.112 76.4609 128.18C74.4297 129.247 72.0859 129.781 69.4297 129.781C66.7995 129.781 64.4948 129.299 62.5156 128.336C60.5625 127.346 58.9089 125.953 57.5547 124.156C56.2005 122.359 55.1068 120.25 54.2734 117.828C53.4661 115.38 52.8932 112.698 52.5547 109.781V106.617C52.8932 103.518 53.4661 100.706 54.2734 98.1797C55.1068 95.6536 56.2005 93.4792 57.5547 91.6562C58.9089 89.8333 60.5625 88.4271 62.5156 87.4375C64.4688 86.4479 66.7474 85.9531 69.3516 85.9531C72.0078 85.9531 74.3646 86.474 76.4219 87.5156C78.4792 88.5312 80.2109 89.9896 81.6172 91.8906C83.0234 93.7656 84.0781 96.0312 84.7812 98.6875C85.4844 101.318 85.8359 104.247 85.8359 107.477ZM76.4219 108.297V107.477C76.4219 105.523 76.2396 103.714 75.875 102.047C75.5104 100.354 74.9375 98.8698 74.1562 97.5938C73.375 96.3177 72.3724 95.3281 71.1484 94.625C69.9505 93.8958 68.5052 93.5312 66.8125 93.5312C65.1458 93.5312 63.7135 93.8177 62.5156 94.3906C61.3177 94.9375 60.3151 95.7057 59.5078 96.6953C58.7005 97.6849 58.0755 98.8438 57.6328 100.172C57.1901 101.474 56.8776 102.893 56.6953 104.43V112.008C57.0078 113.883 57.5417 115.602 58.2969 117.164C59.0521 118.727 60.1198 119.977 61.5 120.914C62.9062 121.826 64.7031 122.281 66.8906 122.281C68.5833 122.281 70.0286 121.917 71.2266 121.188C72.4245 120.458 73.401 119.456 74.1562 118.18C74.9375 116.878 75.5104 115.38 75.875 113.688C76.2396 111.995 76.4219 110.198 76.4219 108.297ZM112.477 129.781C109.352 129.781 106.526 129.273 104 128.258C101.5 127.216 99.3646 125.771 97.5938 123.922C95.849 122.073 94.5078 119.898 93.5703 117.398C92.6328 114.898 92.1641 112.203 92.1641 109.312V107.75C92.1641 104.443 92.6458 101.448 93.6094 98.7656C94.5729 96.0833 95.9141 93.7917 97.6328 91.8906C99.3516 89.9635 101.383 88.4922 103.727 87.4766C106.07 86.4609 108.609 85.9531 111.344 85.9531C114.365 85.9531 117.008 86.4609 119.273 87.4766C121.539 88.4922 123.414 89.9245 124.898 91.7734C126.409 93.5964 127.529 95.7708 128.258 98.2969C129.013 100.823 129.391 103.609 129.391 106.656V110.68H96.7344V103.922H120.094V103.18C120.042 101.487 119.703 99.8984 119.078 98.4141C118.479 96.9297 117.555 95.7318 116.305 94.8203C115.055 93.9089 113.388 93.4531 111.305 93.4531C109.742 93.4531 108.349 93.7917 107.125 94.4688C105.927 95.1198 104.924 96.0703 104.117 97.3203C103.31 98.5703 102.685 100.081 102.242 101.852C101.826 103.596 101.617 105.562 101.617 107.75V109.312C101.617 111.161 101.865 112.88 102.359 114.469C102.88 116.031 103.635 117.398 104.625 118.57C105.615 119.742 106.812 120.667 108.219 121.344C109.625 121.995 111.227 122.32 113.023 122.32C115.289 122.32 117.307 121.865 119.078 120.953C120.849 120.042 122.385 118.753 123.688 117.086L128.648 121.891C127.737 123.219 126.552 124.495 125.094 125.719C123.635 126.917 121.852 127.893 119.742 128.648C117.659 129.404 115.237 129.781 112.477 129.781ZM143.922 86.7344L151.969 100.758L160.172 86.7344H170.523L157.711 107.477L171.031 129H160.68L152.086 114.391L143.492 129H133.102L146.383 107.477L133.609 86.7344H143.922Z" fill="white"/>
<path d="M191.35 68.5374C189.138 68.8187 188.34 71.0996 187.463 72.9617C185.435 72.2983 182.399 71.4346 181.143 72.4383C180.842 72.7406 180.58 73.4001 180.488 74.3109C180.41 75.2204 180.475 76.3287 180.619 77.3795C180.815 78.7365 181.129 79.9889 181.313 80.6824C182.661 81.232 183.642 82.0826 184.165 83.0771C184.859 84.3596 184.82 85.9037 183.917 86.9898L182.111 85.4719C182.307 85.2363 182.412 84.7783 182.098 84.1895C180.737 82.7369 175.533 80.6693 173.733 82.4752C173.565 82.6715 173.381 83.1295 173.346 83.8361C173.312 84.5297 173.414 85.4064 173.58 86.2309C173.796 87.3432 174.057 88.1676 174.246 88.7172C188.431 90.7455 194.019 91.5176 201.504 91.0727C201.635 90.4838 201.871 89.5547 202.25 88.4816C202.852 86.8066 203.598 84.8568 205.26 83.8492C206.699 83.1295 208.257 83.3389 209.631 83.6529C209.932 82.8154 210.442 81.8994 211.057 81.4676C212.732 80.5123 214.826 81.1928 216.514 81.7162L215.546 83.4566C214.564 82.9594 213.308 82.7369 212.379 83.4174C211.554 84.0193 211.384 85.5635 210.979 86.4141C209.879 86.1654 207.524 85.3148 206.49 85.8645C205.914 86.1654 204.998 87.775 204.475 89.2668C204.265 89.8557 204.095 90.4184 203.964 90.9025C208.191 90.5361 213.255 89.8295 220.701 88.8088C221.526 87.8928 223.057 85.7598 222.926 84.7914C221.225 84.0979 219.275 84.3988 217.469 84.5035C218.202 83.1426 220.073 81.3105 219.916 79.7533C218.097 78.2864 214.551 78.6528 212.549 78.8229C212.379 77.0485 211.711 72.8963 210.429 72.1111C207.759 71.8246 205.496 73.2038 203.166 74.5294C202.813 73.1253 202.329 69.7635 201.086 69.4167C199.227 68.8985 197.526 69.9807 195.786 70.8326C194.189 69.7936 192.266 68.4196 191.35 68.5374ZM214.014 73.7534C214.263 74.5883 214.459 75.4938 214.603 76.317C215.938 76.3026 217.129 76.3444 218.346 76.5656C218.228 75.5802 218.032 74.2232 217.234 73.6409C216.108 73.175 215.035 73.425 214.014 73.7534ZM191.153 74.2952C193.155 75.0947 193.784 77.441 194.15 79.2168C195.668 78.552 197.657 77.9763 199.005 78.7379C200.955 80.159 201.099 83.1818 201.086 85.1316L198.73 85.0793C198.665 83.7707 198.678 82.6584 198.22 81.4152C198.023 80.8133 197.644 80.6693 197.107 80.7348C195.367 81.0096 193.849 81.9518 192.292 82.8416C192.056 81.1143 192.148 76.9372 190.473 76.5473C188.837 76.1665 187.358 78.2812 186.194 79.6094L184.388 78.0875C185.932 76.4818 188.706 73.6055 191.153 74.2952ZM175.466 77.5483C175.41 78.1516 175.466 78.9184 175.585 79.6879C176.693 79.701 177.714 79.858 178.735 80.0543C178.421 78.6842 178.224 77.462 178.12 76.1625C176.735 75.8655 175.619 76.0487 175.466 77.5483ZM173.983 91.0596L181.718 129.729H187.816L185.997 111.526C184.623 110.217 183.76 108.621 183.76 106.828C183.76 105.441 184.283 104.172 185.147 103.059L184.087 92.4598C181.221 92.0803 177.937 91.6223 173.983 91.0596ZM221.002 91.1512C217.05 91.7008 213.766 92.1457 210.9 92.5121L209.853 103.059C210.717 104.159 211.24 105.441 211.24 106.828C211.24 108.621 210.377 110.217 209.003 111.526L207.184 129.729H213.282L221.002 91.1512ZM186.495 92.7607L187.332 101.07C187.555 100.913 187.79 100.769 188.026 100.625C190.25 99.3299 193.142 98.5186 196.322 98.3484V93.5197C193.365 93.4674 190.316 93.2057 186.495 92.7607ZM208.492 92.8C204.697 93.2449 201.648 93.4805 198.678 93.5328V98.3484C201.858 98.5186 204.75 99.3299 206.974 100.625C207.21 100.769 207.445 100.913 207.668 101.07L208.492 92.8ZM197.5 100.678C194.215 100.678 191.258 101.463 189.217 102.667C187.162 103.858 186.115 105.349 186.115 106.828C186.115 108.307 187.162 109.799 189.217 110.989C191.258 112.193 194.215 112.979 197.5 112.979C200.785 112.979 203.742 112.193 205.783 110.989C207.838 109.799 208.885 108.307 208.885 106.828C208.885 105.349 207.838 103.858 205.783 102.667C203.742 101.463 200.785 100.678 197.5 100.678ZM188.549 113.319L190.198 129.729H196.322V115.308C193.378 115.151 190.695 114.444 188.549 113.319ZM206.438 113.319C204.292 114.444 201.609 115.151 198.678 115.308V129.729H204.802L206.438 113.319Z" fill="white"/>
</svg>
