<svg width="270" height="270" viewBox="0 0 270 270" fill="none" xmlns="http://www.w3.org/2000/svg">
<rect width="270" height="270" rx="40" fill="#242424"/>
<g filter="url(#filter0_d_3_22)">
<path d="M55.9 154.9C55.9 155.767 53.8333 156.467 49.7 157C45.6333 157.533 41.5667 157.8 37.5 157.8C33.4333 157.8 30.8333 157.567 29.7 157.1C28.5667 156.633 28 155.9 28 154.9V93.6C28 91.8667 29.8667 90.3333 33.6 89C37.4 87.6667 41.7667 87 46.7 87C50.7667 87 53.4 87.8 54.6 89.4C55.4667 90.5333 55.9 91.5667 55.9 92.5V109H56.7C56.7 108.667 57.7 105.9 59.7 100.7C63.5 90.9 66.2667 86 68 86C71.2667 86 75.8667 86.9667 81.8 88.9C84.6667 89.8333 87.1333 91.2 89.2 93C91.2667 94.7333 92.3 96.6667 92.3 98.8C92.3 100.133 90.9333 102.733 88.2 106.6C85.5333 110.4 81.4667 115.5 76 121.9C77.2667 123.233 78.8667 124.933 80.8 127C82.7333 129.067 85.3 132.167 88.5 136.3C91.7667 140.367 93.4 143.267 93.4 145C93.4 146.733 91.8333 148.767 88.7 151.1C85.5667 153.367 82.2333 155.233 78.7 156.7C75.1667 158.1 72.5333 158.8 70.8 158.8C69.6667 158.8 68.1 157.1 66.1 153.7C64.1667 150.233 61.8 145.067 59 138.2L55.9 141.9V154.9ZM126.798 155.1C126.798 155.967 124.765 156.667 120.698 157.2C116.698 157.733 112.632 158 108.498 158C104.432 158 101.798 157.767 100.598 157.3C99.4651 156.833 98.8984 156.1 98.8984 155.1V93.6C98.8984 91.9333 100.832 90.4333 104.698 89.1C108.565 87.7 112.765 87 117.298 87C123.632 87 126.798 88.5 126.798 91.5V113.5H135.698V93.6C135.698 91.9333 137.632 90.4333 141.498 89.1C145.432 87.7 149.665 87 154.198 87C160.465 87 163.598 88.5 163.598 91.5V155.1C163.598 155.967 161.565 156.667 157.498 157.2C153.432 157.733 149.365 158 145.298 158C141.232 158 138.598 157.767 137.398 157.3C136.265 156.833 135.698 156.1 135.698 155.1V132.2H126.798V155.1ZM222.755 158H180.355C177.088 158 174.888 157.767 173.755 157.3C172.621 156.833 172.055 156.1 172.055 155.1V91.8C172.055 90.0667 172.821 88.8333 174.355 88.1C175.955 87.3667 178.788 87 182.855 87H223.055C224.455 87 225.155 89.3333 225.155 94C225.155 98.6 224.855 102.133 224.255 104.6C223.655 107 222.855 108.2 221.855 108.2C217.521 108.2 210.221 107.767 199.955 106.9V113.6C209.821 113.2 216.255 113 219.255 113C221.055 113 221.955 115.1 221.955 119.3C221.955 123.5 221.588 126.7 220.855 128.9C220.188 131.033 219.255 132.1 218.055 132.1L199.955 131.7V138.1C211.555 137.233 219.555 136.8 223.955 136.8C225.355 136.8 226.055 139.133 226.055 143.8C226.055 148.467 225.755 152 225.155 154.4C224.555 156.8 223.755 158 222.755 158ZM209.255 67C210.788 67 212.321 68.2667 213.855 70.8C215.455 73.3333 216.255 76.4667 216.255 80.2C216.255 81.2 213.355 82.1 207.555 82.9C201.821 83.6333 197.055 84 193.255 84C191.988 84 190.821 83.2 189.755 81.6C188.755 80 188.255 78.1667 188.255 76.1C188.255 73.9667 190.721 71.9333 195.655 70C200.655 68 205.188 67 209.255 67Z" fill="#A855F7"/>
</g>
<g filter="url(#filter1_d_3_22)">
<path d="M40.8 205.68V154.8C40.8 153.68 42.2933 152.533 45.28 151.36C48.2667 150.187 51.4933 149.6 54.96 149.6C56.56 149.6 57.8133 149.787 58.72 150.16C59.6267 150.533 60.1867 150.907 60.4 151.28C60.6133 151.653 61.0133 153.253 61.6 156.08H62.24C62.3467 155.6 62.8267 154.853 63.68 153.84C64.5333 152.827 65.3867 152 66.24 151.36C67.1467 150.72 68.4267 150.16 70.08 149.68C71.7333 149.147 73.6533 148.88 75.84 148.88C78.08 148.88 80.1067 149.387 81.92 150.4C83.7333 151.36 85.0667 152.507 85.92 153.84C86.8267 155.12 87.52 156.773 88 158.8C88.5333 160.773 88.8267 162.373 88.88 163.6C88.9867 164.773 89.04 166.507 89.04 168.8C89.04 171.04 88.96 173.28 88.8 175.52C88.64 177.707 88.3467 179.947 87.92 182.24C87.4933 184.533 86.88 186.507 86.08 188.16C85.28 189.813 84.2667 191.307 83.04 192.64C80.5867 195.307 76.9867 196.64 72.24 196.64C70.5333 196.64 69.0133 196.4 67.68 195.92C66.4 195.387 65.44 194.773 64.8 194.08C63.4667 192.64 62.6933 191.36 62.48 190.24L62.4 189.44H61.76L62.88 196.64V205.68C62.88 206.267 61.3333 206.72 58.24 207.04C55.2 207.413 52.0533 207.6 48.8 207.6C45.6 207.6 43.4667 207.44 42.4 207.12C41.3333 206.853 40.8 206.373 40.8 205.68ZM67.36 172.56C67.36 168.027 67.12 164.853 66.64 163.04C66.16 161.227 65.44 160.32 64.48 160.32C63.52 160.32 62.8267 160.853 62.4 161.92V182.88C62.4 184.267 63.12 184.96 64.56 184.96C66.4267 184.96 67.36 180.827 67.36 172.56ZM114.887 177.92C114.887 181.387 116.54 183.12 119.847 183.12C121.767 183.12 124.274 182.48 127.367 181.2C130.46 179.867 132.087 179.2 132.247 179.2C133.26 179.2 134.594 180.72 136.247 183.76C137.9 186.8 138.727 189.04 138.727 190.48C138.727 192.56 136.594 194.133 132.327 195.2C128.06 196.267 123.874 196.8 119.767 196.8C115.714 196.8 112.3 196.48 109.527 195.84C106.807 195.2 104.567 194.4 102.807 193.44C101.1 192.427 99.5802 191.2 98.2469 189.76C96.9669 188.32 96.0069 186.96 95.3669 185.68C94.7269 184.347 94.2202 182.88 93.8469 181.28C93.3135 178.933 93.0469 176.507 93.0469 174C93.0469 164.293 95.5802 157.6 100.647 153.92C103.154 152.053 105.954 150.747 109.047 150C112.14 149.253 115.794 148.88 120.007 148.88C133.5 148.88 140.247 153.573 140.247 162.96C140.247 172.933 132.674 177.92 117.527 177.92H114.887ZM114.727 166.24V171.52C116.274 171.52 117.527 170.907 118.487 169.68C119.5 168.453 120.007 166.96 120.007 165.2C120.007 162 119.18 160.4 117.527 160.4C115.66 160.4 114.727 162.347 114.727 166.24ZM166.699 192.96C166.272 194.987 163.899 196 159.579 196C155.259 196 151.339 195.76 147.819 195.28C144.352 194.747 142.619 193.947 142.619 192.88C142.619 192.24 143.739 190.24 145.979 186.88C148.219 183.52 151.605 178.8 156.139 172.72C147.605 161.093 143.339 155.013 143.339 154.48C143.339 153.467 145.205 152.4 148.939 151.28C152.672 150.16 155.819 149.6 158.379 149.6C160.939 149.6 162.912 149.92 164.299 150.56C165.739 151.147 166.539 151.813 166.699 152.56L170.219 164.8H170.939L172.219 153.28C172.272 152.96 172.885 152.533 174.059 152C175.285 151.413 176.912 150.88 178.939 150.4C180.965 149.867 182.912 149.6 184.779 149.6C191.819 149.6 195.339 150.8 195.339 153.2C195.339 153.947 194.299 156.053 192.219 159.52C190.139 162.933 187.019 167.707 182.859 173.84C191.712 185.84 196.139 192.187 196.139 192.88C196.139 194.96 193.125 196 187.099 196C177.765 196 172.885 194.987 172.459 192.96L169.339 182.48H168.779L166.699 192.96Z" fill="white"/>
</g>
<g filter="url(#filter2_d_3_22)">
<path d="M215.01 135.007C212.799 135.288 212 137.569 211.124 139.431C209.095 138.768 206.059 137.904 204.803 138.908C204.502 139.21 204.24 139.87 204.149 140.781C204.07 141.69 204.136 142.798 204.28 143.849C204.476 145.206 204.79 146.459 204.973 147.152C206.321 147.702 207.303 148.552 207.826 149.547C208.52 150.829 208.48 152.373 207.577 153.46L205.771 151.942C205.968 151.706 206.072 151.248 205.758 150.659C204.397 149.207 199.193 147.139 197.394 148.945C197.225 149.141 197.042 149.599 197.007 150.306C196.973 150.999 197.075 151.876 197.241 152.701C197.457 153.813 197.717 154.637 197.907 155.187C212.092 157.215 217.68 157.987 225.165 157.542C225.296 156.954 225.531 156.024 225.911 154.951C226.513 153.276 227.259 151.327 228.921 150.319C230.36 149.599 231.917 149.809 233.291 150.123C233.592 149.285 234.103 148.369 234.718 147.937C236.393 146.982 238.486 147.663 240.174 148.186L239.206 149.926C238.225 149.429 236.968 149.207 236.039 149.887C235.215 150.489 235.045 152.033 234.639 152.884C233.54 152.635 231.184 151.785 230.151 152.334C229.575 152.635 228.659 154.245 228.135 155.737C227.926 156.325 227.756 156.888 227.625 157.372C231.852 157.006 236.916 156.299 244.362 155.279C245.186 154.363 246.717 152.229 246.587 151.261C244.885 150.568 242.936 150.869 241.13 150.973C241.863 149.612 243.734 147.78 243.577 146.223C241.758 144.756 238.212 145.123 236.209 145.293C236.039 143.518 235.372 139.366 234.089 138.581C231.42 138.294 229.156 139.674 226.827 140.999C226.473 139.595 225.989 136.233 224.746 135.886C222.888 135.368 221.187 136.45 219.446 137.302C217.85 136.263 215.926 134.889 215.01 135.007ZM237.675 140.223C237.924 141.058 238.12 141.964 238.264 142.787C239.599 142.772 240.789 142.814 242.006 143.035C241.889 142.05 241.692 140.693 240.894 140.111C239.769 139.645 238.696 139.895 237.675 140.223ZM214.814 140.765C216.816 141.564 217.444 143.911 217.811 145.687C219.329 145.022 221.318 144.446 222.665 145.208C224.615 146.629 224.759 149.652 224.746 151.601L222.391 151.549C222.325 150.24 222.338 149.128 221.88 147.885C221.684 147.283 221.304 147.139 220.768 147.204C219.028 147.479 217.51 148.421 215.952 149.311C215.717 147.584 215.808 143.407 214.133 143.017C212.498 142.636 211.019 144.751 209.854 146.079L208.048 144.557C209.593 142.952 212.367 140.075 214.814 140.765ZM199.126 144.018C199.07 144.621 199.126 145.388 199.246 146.158C200.354 146.171 201.375 146.328 202.395 146.524C202.081 145.154 201.885 143.932 201.78 142.632C200.396 142.335 199.28 142.518 199.126 144.018ZM197.644 157.529L205.379 196.198H211.477L209.658 177.996C208.284 176.687 207.42 175.091 207.42 173.298C207.42 171.911 207.944 170.641 208.807 169.529L207.747 158.929C204.882 158.55 201.597 158.092 197.644 157.529ZM244.663 157.621C240.711 158.171 237.426 158.615 234.561 158.982L233.514 169.529C234.377 170.628 234.901 171.911 234.901 173.298C234.901 175.091 234.037 176.687 232.663 177.996L230.844 196.198H236.942L244.663 157.621ZM210.155 159.23L210.993 167.54C211.215 167.383 211.451 167.239 211.686 167.095C213.911 165.8 216.803 164.988 219.983 164.818V159.989C217.025 159.937 213.976 159.675 210.155 159.23ZM232.153 159.27C228.358 159.715 225.309 159.95 222.338 160.003V164.818C225.518 164.988 228.41 165.8 230.635 167.095C230.87 167.239 231.106 167.383 231.328 167.54L232.153 159.27ZM221.161 167.147C217.876 167.147 214.919 167.933 212.877 169.137C210.823 170.327 209.776 171.819 209.776 173.298C209.776 174.777 210.823 176.268 212.877 177.459C214.919 178.663 217.876 179.448 221.161 179.448C224.445 179.448 227.403 178.663 229.444 177.459C231.498 176.268 232.545 174.777 232.545 173.298C232.545 171.819 231.498 170.327 229.444 169.137C227.403 167.933 224.445 167.147 221.161 167.147ZM212.21 179.788L213.859 196.198H219.983V181.778C217.038 181.621 214.356 180.914 212.21 179.788ZM230.098 179.788C227.952 180.914 225.27 181.621 222.338 181.778V196.198H228.463L230.098 179.788Z" fill="white"/>
</g>
<defs>
<filter id="filter0_d_3_22" x="24" y="67" width="206.055" height="99.8" filterUnits="userSpaceOnUse" color-interpolation-filters="sRGB">
<feFlood flood-opacity="0" result="BackgroundImageFix"/>
<feColorMatrix in="SourceAlpha" type="matrix" values="0 0 0 0 0 0 0 0 0 0 0 0 0 0 0 0 0 0 127 0" result="hardAlpha"/>
<feOffset dy="4"/>
<feGaussianBlur stdDeviation="2"/>
<feComposite in2="hardAlpha" operator="out"/>
<feColorMatrix type="matrix" values="0 0 0 0 0 0 0 0 0 0 0 0 0 0 0 0 0 0 1 0"/>
<feBlend mode="normal" in2="BackgroundImageFix" result="effect1_dropShadow_3_22"/>
<feBlend mode="normal" in="SourceGraphic" in2="effect1_dropShadow_3_22" result="shape"/>
</filter>
<filter id="filter1_d_3_22" x="36.8" y="148.88" width="163.339" height="66.72" filterUnits="userSpaceOnUse" color-interpolation-filters="sRGB">
<feFlood flood-opacity="0" result="BackgroundImageFix"/>
<feColorMatrix in="SourceAlpha" type="matrix" values="0 0 0 0 0 0 0 0 0 0 0 0 0 0 0 0 0 0 127 0" result="hardAlpha"/>
<feOffset dy="4"/>
<feGaussianBlur stdDeviation="2"/>
<feComposite in2="hardAlpha" operator="out"/>
<feColorMatrix type="matrix" values="0 0 0 0 0 0 0 0 0 0 0 0 0 0 0 0 0 0 1 0"/>
<feBlend mode="normal" in2="BackgroundImageFix" result="effect1_dropShadow_3_22"/>
<feBlend mode="normal" in="SourceGraphic" in2="effect1_dropShadow_3_22" result="shape"/>
</filter>
<filter id="filter2_d_3_22" x="193" y="135" width="57.5944" height="69.1982" filterUnits="userSpaceOnUse" color-interpolation-filters="sRGB">
<feFlood flood-opacity="0" result="BackgroundImageFix"/>
<feColorMatrix in="SourceAlpha" type="matrix" values="0 0 0 0 0 0 0 0 0 0 0 0 0 0 0 0 0 0 127 0" result="hardAlpha"/>
<feOffset dy="4"/>
<feGaussianBlur stdDeviation="2"/>
<feComposite in2="hardAlpha" operator="out"/>
<feColorMatrix type="matrix" values="0 0 0 0 0 0 0 0 0 0 0 0 0 0 0 0 0 0 1 0"/>
<feBlend mode="normal" in2="BackgroundImageFix" result="effect1_dropShadow_3_22"/>
<feBlend mode="normal" in="SourceGraphic" in2="effect1_dropShadow_3_22" result="shape"/>
</filter>
</defs>
</svg>
