<svg width="270" height="270" viewBox="0 0 270 270" fill="none" xmlns="http://www.w3.org/2000/svg">
<rect width="270" height="270" rx="40" fill="black"/>
<path d="M46.5586 82.9062V154H29.4199V82.9062H46.5586ZM88.9902 82.9062L61.4512 118.941L45.3379 136.568L42.2129 120.846L52.5156 105.221L67.8477 82.9062H88.9902ZM68.7266 154L50.3672 121.969L63.6973 112.154L88.9902 154H68.7266ZM141.285 111.129V124.312H104.811V111.129H141.285ZM110.523 82.9062V154H93.3848V82.9062H110.523ZM152.809 82.9062V154H135.719V82.9062H152.809ZM212.623 140.816V154H174.732V140.816H212.623ZM180.836 82.9062V154H163.697V82.9062H180.836ZM207.74 111.129V123.873H174.732V111.129H207.74ZM212.77 82.9062V96.1387H174.732V82.9062H212.77ZM182.203 79.1953L191.871 63.8633H209.254L195.631 79.1953H182.203Z" fill="#A855F7"/>
<path d="M82.2969 155.859V206.25H72.8828V147.734H81.5547L82.2969 155.859ZM109.836 168.477V169.297C109.836 172.37 109.471 175.221 108.742 177.852C108.039 180.456 106.984 182.734 105.578 184.688C104.198 186.615 102.492 188.112 100.461 189.18C98.4297 190.247 96.0859 190.781 93.4297 190.781C90.7995 190.781 88.4948 190.299 86.5156 189.336C84.5625 188.346 82.9089 186.953 81.5547 185.156C80.2005 183.359 79.1068 181.25 78.2734 178.828C77.4661 176.38 76.8932 173.698 76.5547 170.781V167.617C76.8932 164.518 77.4661 161.706 78.2734 159.18C79.1068 156.654 80.2005 154.479 81.5547 152.656C82.9089 150.833 84.5625 149.427 86.5156 148.438C88.4688 147.448 90.7474 146.953 93.3516 146.953C96.0078 146.953 98.3646 147.474 100.422 148.516C102.479 149.531 104.211 150.99 105.617 152.891C107.023 154.766 108.078 157.031 108.781 159.688C109.484 162.318 109.836 165.247 109.836 168.477ZM100.422 169.297V168.477C100.422 166.523 100.24 164.714 99.875 163.047C99.5104 161.354 98.9375 159.87 98.1562 158.594C97.375 157.318 96.3724 156.328 95.1484 155.625C93.9505 154.896 92.5052 154.531 90.8125 154.531C89.1458 154.531 87.7135 154.818 86.5156 155.391C85.3177 155.938 84.3151 156.706 83.5078 157.695C82.7005 158.685 82.0755 159.844 81.6328 161.172C81.1901 162.474 80.8776 163.893 80.6953 165.43V173.008C81.0078 174.883 81.5417 176.602 82.2969 178.164C83.0521 179.727 84.1198 180.977 85.5 181.914C86.9062 182.826 88.7031 183.281 90.8906 183.281C92.5833 183.281 94.0286 182.917 95.2266 182.188C96.4245 181.458 97.401 180.456 98.1562 179.18C98.9375 177.878 99.5104 176.38 99.875 174.688C100.24 172.995 100.422 171.198 100.422 169.297ZM136.477 190.781C133.352 190.781 130.526 190.273 128 189.258C125.5 188.216 123.365 186.771 121.594 184.922C119.849 183.073 118.508 180.898 117.57 178.398C116.633 175.898 116.164 173.203 116.164 170.312V168.75C116.164 165.443 116.646 162.448 117.609 159.766C118.573 157.083 119.914 154.792 121.633 152.891C123.352 150.964 125.383 149.492 127.727 148.477C130.07 147.461 132.609 146.953 135.344 146.953C138.365 146.953 141.008 147.461 143.273 148.477C145.539 149.492 147.414 150.924 148.898 152.773C150.409 154.596 151.529 156.771 152.258 159.297C153.013 161.823 153.391 164.609 153.391 167.656V171.68H120.734V164.922H144.094V164.18C144.042 162.487 143.703 160.898 143.078 159.414C142.479 157.93 141.555 156.732 140.305 155.82C139.055 154.909 137.388 154.453 135.305 154.453C133.742 154.453 132.349 154.792 131.125 155.469C129.927 156.12 128.924 157.07 128.117 158.32C127.31 159.57 126.685 161.081 126.242 162.852C125.826 164.596 125.617 166.562 125.617 168.75V170.312C125.617 172.161 125.865 173.88 126.359 175.469C126.88 177.031 127.635 178.398 128.625 179.57C129.615 180.742 130.812 181.667 132.219 182.344C133.625 182.995 135.227 183.32 137.023 183.32C139.289 183.32 141.307 182.865 143.078 181.953C144.849 181.042 146.385 179.753 147.688 178.086L152.648 182.891C151.737 184.219 150.552 185.495 149.094 186.719C147.635 187.917 145.852 188.893 143.742 189.648C141.659 190.404 139.237 190.781 136.477 190.781ZM167.922 147.734L175.969 161.758L184.172 147.734H194.523L181.711 168.477L195.031 190H184.68L176.086 175.391L167.492 190H157.102L170.383 168.477L157.609 147.734H167.922Z" fill="white"/>
<path d="M215.35 129.537C213.138 129.819 212.34 132.1 211.463 133.962C209.435 133.298 206.399 132.435 205.143 133.438C204.842 133.741 204.58 134.4 204.488 135.311C204.41 136.22 204.475 137.329 204.619 138.38C204.815 139.737 205.129 140.989 205.313 141.682C206.661 142.232 207.642 143.083 208.165 144.077C208.859 145.36 208.82 146.904 207.917 147.99L206.111 146.472C206.307 146.236 206.412 145.778 206.098 145.189C204.737 143.737 199.533 141.669 197.733 143.475C197.565 143.671 197.381 144.129 197.346 144.836C197.312 145.53 197.414 146.406 197.58 147.231C197.796 148.343 198.057 149.168 198.246 149.717C212.431 151.746 218.019 152.518 225.504 152.073C225.635 151.484 225.871 150.555 226.25 149.482C226.852 147.807 227.598 145.857 229.26 144.849C230.699 144.129 232.257 144.339 233.631 144.653C233.932 143.815 234.442 142.899 235.057 142.468C236.732 141.512 238.826 142.193 240.514 142.716L239.546 144.457C238.564 143.959 237.308 143.737 236.379 144.417C235.554 145.019 235.384 146.563 234.979 147.414C233.879 147.165 231.524 146.315 230.49 146.864C229.914 147.165 228.998 148.775 228.475 150.267C228.265 150.856 228.095 151.418 227.964 151.903C232.191 151.536 237.255 150.829 244.701 149.809C245.526 148.893 247.057 146.76 246.926 145.791C245.225 145.098 243.275 145.399 241.469 145.504C242.202 144.143 244.073 142.311 243.916 140.753C242.097 139.286 238.551 139.653 236.549 139.823C236.379 138.048 235.711 133.896 234.429 133.111C231.759 132.825 229.496 134.204 227.166 135.529C226.813 134.125 226.329 130.764 225.086 130.417C223.227 129.899 221.526 130.981 219.786 131.833C218.189 130.794 216.266 129.42 215.35 129.537ZM238.014 134.753C238.263 135.588 238.459 136.494 238.603 137.317C239.938 137.303 241.129 137.344 242.346 137.566C242.228 136.58 242.032 135.223 241.234 134.641C240.108 134.175 239.035 134.425 238.014 134.753ZM215.153 135.295C217.155 136.095 217.784 138.441 218.15 140.217C219.668 139.552 221.657 138.976 223.005 139.738C224.955 141.159 225.099 144.182 225.086 146.132L222.73 146.079C222.665 144.771 222.678 143.658 222.22 142.415C222.023 141.813 221.644 141.669 221.107 141.735C219.367 142.01 217.849 142.952 216.292 143.842C216.056 142.114 216.148 137.937 214.473 137.547C212.837 137.166 211.358 139.281 210.194 140.609L208.388 139.087C209.932 137.482 212.706 134.606 215.153 135.295ZM199.466 138.548C199.41 139.152 199.466 139.918 199.585 140.688C200.693 140.701 201.714 140.858 202.735 141.054C202.421 139.684 202.224 138.462 202.12 137.163C200.735 136.865 199.619 137.049 199.466 138.548ZM197.983 152.06L205.718 190.729H211.816L209.997 172.526C208.623 171.217 207.76 169.621 207.76 167.828C207.76 166.441 208.283 165.172 209.147 164.059L208.087 153.46C205.221 153.08 201.937 152.622 197.983 152.06ZM245.002 152.151C241.05 152.701 237.766 153.146 234.9 153.512L233.853 164.059C234.717 165.159 235.24 166.441 235.24 167.828C235.24 169.621 234.377 171.217 233.003 172.526L231.184 190.729H237.282L245.002 152.151ZM210.495 153.761L211.332 162.07C211.555 161.913 211.79 161.769 212.026 161.625C214.25 160.33 217.142 159.519 220.322 159.348V154.52C217.365 154.467 214.316 154.206 210.495 153.761ZM232.492 153.8C228.697 154.245 225.648 154.48 222.678 154.533V159.348C225.858 159.519 228.75 160.33 230.974 161.625C231.21 161.769 231.445 161.913 231.668 162.07L232.492 153.8ZM221.5 161.678C218.215 161.678 215.258 162.463 213.217 163.667C211.162 164.858 210.115 166.349 210.115 167.828C210.115 169.307 211.162 170.799 213.217 171.989C215.258 173.193 218.215 173.979 221.5 173.979C224.785 173.979 227.742 173.193 229.783 171.989C231.838 170.799 232.885 169.307 232.885 167.828C232.885 166.349 231.838 164.858 229.783 163.667C227.742 162.463 224.785 161.678 221.5 161.678ZM212.549 174.319L214.198 190.729H220.322V176.308C217.378 176.151 214.695 175.444 212.549 174.319ZM230.438 174.319C228.292 175.444 225.609 176.151 222.678 176.308V190.729H228.802L230.438 174.319Z" fill="white"/>
</svg>
