<svg width="227" height="155" viewBox="0 0 227 155" fill="none" xmlns="http://www.w3.org/2000/svg">
<g filter="url(#filter0_d_1_21)">
<path d="M31.9 93.9C31.9 94.7667 29.8333 95.4667 25.7 96C21.6333 96.5333 17.5667 96.8 13.5 96.8C9.43333 96.8 6.83333 96.5667 5.7 96.1C4.56667 95.6333 4 94.9 4 93.9V32.6C4 30.8667 5.86667 29.3333 9.6 28C13.4 26.6667 17.7667 26 22.7 26C26.7667 26 29.4 26.8 30.6 28.4C31.4667 29.5333 31.9 30.5667 31.9 31.5V48H32.7C32.7 47.6667 33.7 44.9 35.7 39.7C39.5 29.9 42.2667 25 44 25C47.2667 25 51.8667 25.9667 57.8 27.9C60.6667 28.8333 63.1333 30.2 65.2 32C67.2667 33.7333 68.3 35.6667 68.3 37.8C68.3 39.1333 66.9333 41.7333 64.2 45.6C61.5333 49.4 57.4667 54.5 52 60.9C53.2667 62.2333 54.8667 63.9333 56.8 66C58.7333 68.0667 61.3 71.1667 64.5 75.3C67.7667 79.3667 69.4 82.2667 69.4 84C69.4 85.7333 67.8333 87.7667 64.7 90.1C61.5667 92.3667 58.2333 94.2333 54.7 95.7C51.1667 97.1 48.5333 97.8 46.8 97.8C45.6667 97.8 44.1 96.1 42.1 92.7C40.1667 89.2333 37.8 84.0667 35 77.2L31.9 80.9V93.9ZM102.798 94.1C102.798 94.9667 100.765 95.6667 96.6984 96.2C92.6984 96.7333 88.6318 97 84.4984 97C80.4318 97 77.7984 96.7667 76.5984 96.3C75.4651 95.8333 74.8984 95.1 74.8984 94.1V32.6C74.8984 30.9333 76.8318 29.4333 80.6984 28.1C84.5651 26.7 88.7651 26 93.2984 26C99.6318 26 102.798 27.5 102.798 30.5V52.5H111.698V32.6C111.698 30.9333 113.632 29.4333 117.498 28.1C121.432 26.7 125.665 26 130.198 26C136.465 26 139.598 27.5 139.598 30.5V94.1C139.598 94.9667 137.565 95.6667 133.498 96.2C129.432 96.7333 125.365 97 121.298 97C117.232 97 114.598 96.7667 113.398 96.3C112.265 95.8333 111.698 95.1 111.698 94.1V71.2H102.798V94.1ZM198.755 97H156.355C153.088 97 150.888 96.7667 149.755 96.3C148.621 95.8333 148.055 95.1 148.055 94.1V30.8C148.055 29.0667 148.821 27.8333 150.355 27.1C151.955 26.3667 154.788 26 158.855 26H199.055C200.455 26 201.155 28.3333 201.155 33C201.155 37.6 200.855 41.1333 200.255 43.6C199.655 46 198.855 47.2 197.855 47.2C193.521 47.2 186.221 46.7667 175.955 45.9V52.6C185.821 52.2 192.255 52 195.255 52C197.055 52 197.955 54.1 197.955 58.3C197.955 62.5 197.588 65.7 196.855 67.9C196.188 70.0333 195.255 71.1 194.055 71.1L175.955 70.7V77.1C187.555 76.2333 195.555 75.8 199.955 75.8C201.355 75.8 202.055 78.1333 202.055 82.8C202.055 87.4667 201.755 91 201.155 93.4C200.555 95.8 199.755 97 198.755 97ZM185.255 6C186.788 6 188.321 7.26666 189.855 9.8C191.455 12.3333 192.255 15.4667 192.255 19.2C192.255 20.2 189.355 21.1 183.555 21.9C177.821 22.6333 173.055 23 169.255 23C167.988 23 166.821 22.2 165.755 20.6C164.755 19 164.255 17.1667 164.255 15.1C164.255 12.9667 166.721 10.9333 171.655 8.99999C176.655 7 181.188 6 185.255 6Z" fill="#A855F7"/>
</g>
<g filter="url(#filter1_d_1_21)">
<path d="M16.8 144.68V93.8C16.8 92.68 18.2933 91.5333 21.28 90.36C24.2667 89.1867 27.4933 88.6 30.96 88.6C32.56 88.6 33.8133 88.7867 34.72 89.16C35.6267 89.5333 36.1867 89.9067 36.4 90.28C36.6133 90.6533 37.0133 92.2533 37.6 95.08H38.24C38.3467 94.6 38.8267 93.8533 39.68 92.84C40.5333 91.8267 41.3867 91 42.24 90.36C43.1467 89.72 44.4267 89.16 46.08 88.68C47.7333 88.1467 49.6533 87.88 51.84 87.88C54.08 87.88 56.1067 88.3867 57.92 89.4C59.7333 90.36 61.0667 91.5067 61.92 92.84C62.8267 94.12 63.52 95.7733 64 97.8C64.5333 99.7733 64.8267 101.373 64.88 102.6C64.9867 103.773 65.04 105.507 65.04 107.8C65.04 110.04 64.96 112.28 64.8 114.52C64.64 116.707 64.3467 118.947 63.92 121.24C63.4933 123.533 62.88 125.507 62.08 127.16C61.28 128.813 60.2667 130.307 59.04 131.64C56.5867 134.307 52.9867 135.64 48.24 135.64C46.5333 135.64 45.0133 135.4 43.68 134.92C42.4 134.387 41.44 133.773 40.8 133.08C39.4667 131.64 38.6933 130.36 38.48 129.24L38.4 128.44H37.76L38.88 135.64V144.68C38.88 145.267 37.3333 145.72 34.24 146.04C31.2 146.413 28.0533 146.6 24.8 146.6C21.6 146.6 19.4667 146.44 18.4 146.12C17.3333 145.853 16.8 145.373 16.8 144.68ZM43.36 111.56C43.36 107.027 43.12 103.853 42.64 102.04C42.16 100.227 41.44 99.32 40.48 99.32C39.52 99.32 38.8267 99.8533 38.4 100.92V121.88C38.4 123.267 39.12 123.96 40.56 123.96C42.4267 123.96 43.36 119.827 43.36 111.56ZM90.8869 116.92C90.8869 120.387 92.5402 122.12 95.8469 122.12C97.7669 122.12 100.274 121.48 103.367 120.2C106.46 118.867 108.087 118.2 108.247 118.2C109.26 118.2 110.594 119.72 112.247 122.76C113.9 125.8 114.727 128.04 114.727 129.48C114.727 131.56 112.594 133.133 108.327 134.2C104.06 135.267 99.8735 135.8 95.7669 135.8C91.7135 135.8 88.3002 135.48 85.5269 134.84C82.8069 134.2 80.5669 133.4 78.8069 132.44C77.1002 131.427 75.5802 130.2 74.2469 128.76C72.9669 127.32 72.0069 125.96 71.3669 124.68C70.7269 123.347 70.2202 121.88 69.8469 120.28C69.3135 117.933 69.0469 115.507 69.0469 113C69.0469 103.293 71.5802 96.6 76.6469 92.92C79.1535 91.0533 81.9535 89.7467 85.0469 89C88.1402 88.2533 91.7935 87.88 96.0069 87.88C109.5 87.88 116.247 92.5733 116.247 101.96C116.247 111.933 108.674 116.92 93.5269 116.92H90.8869ZM90.7269 105.24V110.52C92.2735 110.52 93.5269 109.907 94.4869 108.68C95.5002 107.453 96.0069 105.96 96.0069 104.2C96.0069 101 95.1802 99.4 93.5269 99.4C91.6602 99.4 90.7269 101.347 90.7269 105.24ZM142.699 131.96C142.272 133.987 139.899 135 135.579 135C131.259 135 127.339 134.76 123.819 134.28C120.352 133.747 118.619 132.947 118.619 131.88C118.619 131.24 119.739 129.24 121.979 125.88C124.219 122.52 127.605 117.8 132.139 111.72C123.605 100.093 119.339 94.0133 119.339 93.48C119.339 92.4667 121.205 91.4 124.939 90.28C128.672 89.16 131.819 88.6 134.379 88.6C136.939 88.6 138.912 88.92 140.299 89.56C141.739 90.1467 142.539 90.8133 142.699 91.56L146.219 103.8H146.939L148.219 92.28C148.272 91.96 148.885 91.5333 150.059 91C151.285 90.4133 152.912 89.88 154.939 89.4C156.965 88.8667 158.912 88.6 160.779 88.6C167.819 88.6 171.339 89.8 171.339 92.2C171.339 92.9467 170.299 95.0533 168.219 98.52C166.139 101.933 163.019 106.707 158.859 112.84C167.712 124.84 172.139 131.187 172.139 131.88C172.139 133.96 169.125 135 163.099 135C153.765 135 148.885 133.987 148.459 131.96L145.339 121.48H144.779L142.699 131.96Z" fill="white"/>
</g>
<g filter="url(#filter2_d_1_21)">
<path d="M191.01 74.0071C188.799 74.2884 188 76.5693 187.124 78.4314C185.095 77.768 182.059 76.9043 180.803 77.908C180.502 78.2103 180.24 78.8698 180.149 79.7806C180.07 80.6901 180.136 81.7985 180.28 82.8493C180.476 84.2063 180.79 85.4586 180.973 86.1521C182.321 86.7018 183.303 87.5523 183.826 88.5469C184.52 89.8293 184.48 91.3734 183.577 92.4596L181.771 90.9416C181.968 90.7061 182.072 90.248 181.758 89.6592C180.397 88.2066 175.193 86.1391 173.394 87.9449C173.225 88.1412 173.042 88.5992 173.007 89.3059C172.973 89.9994 173.075 90.8762 173.241 91.7006C173.457 92.8129 173.717 93.6373 173.907 94.1869C188.092 96.2152 193.68 96.9873 201.165 96.5424C201.296 95.9535 201.531 95.0244 201.911 93.9514C202.513 92.2764 203.259 90.3266 204.921 89.3189C206.36 88.5992 207.917 88.8086 209.291 89.1227C209.592 88.2852 210.103 87.3691 210.718 86.9373C212.393 85.982 214.486 86.6625 216.174 87.1859L215.206 88.9264C214.225 88.4291 212.968 88.2066 212.039 88.8871C211.215 89.4891 211.045 91.0332 210.639 91.8838C209.54 91.6352 207.184 90.7846 206.151 91.3342C205.575 91.6352 204.659 93.2447 204.135 94.7365C203.926 95.3254 203.756 95.8881 203.625 96.3723C207.852 96.0059 212.916 95.2992 220.362 94.2785C221.186 93.3625 222.717 91.2295 222.587 90.2611C220.885 89.5676 218.936 89.8686 217.13 89.9732C217.863 88.6123 219.734 86.7803 219.577 85.223C217.758 83.7561 214.212 84.1225 212.209 84.2926C212.039 82.5182 211.372 78.366 210.089 77.5809C207.42 77.2943 205.156 78.6735 202.827 79.9991C202.473 78.595 201.989 75.2332 200.746 74.8865C198.888 74.3683 197.187 75.4505 195.446 76.3024C193.85 75.2633 191.926 73.8893 191.01 74.0071ZM213.675 79.2231C213.924 80.058 214.12 80.9636 214.264 81.7867C215.599 81.7723 216.789 81.8142 218.006 82.0353C217.889 81.0499 217.692 79.6929 216.894 79.1106C215.769 78.6447 214.696 78.8947 213.675 79.2231ZM190.814 79.7649C192.816 80.5645 193.444 82.9108 193.811 84.6865C195.329 84.0218 197.318 83.446 198.665 84.2076C200.615 85.6287 200.759 88.6516 200.746 90.6014L198.391 90.549C198.325 89.2404 198.338 88.1281 197.88 86.885C197.684 86.283 197.304 86.1391 196.768 86.2045C195.028 86.4793 193.51 87.4215 191.952 88.3113C191.717 86.584 191.808 82.407 190.133 82.017C188.498 81.6362 187.019 83.7509 185.854 85.0791L184.048 83.5572C185.593 81.9516 188.367 79.0753 190.814 79.7649ZM175.126 83.0181C175.07 83.6213 175.126 84.3882 175.246 85.1576C176.354 85.1707 177.375 85.3277 178.395 85.524C178.081 84.1539 177.885 82.9317 177.78 81.6323C176.396 81.3352 175.28 81.5184 175.126 83.0181ZM173.644 96.5293L181.379 135.198H187.477L185.658 116.996C184.284 115.687 183.42 114.091 183.42 112.298C183.42 110.911 183.944 109.641 184.807 108.529L183.747 97.9295C180.882 97.55 177.597 97.092 173.644 96.5293ZM220.663 96.6209C216.711 97.1705 213.426 97.6154 210.561 97.9818L209.514 108.529C210.377 109.628 210.901 110.911 210.901 112.298C210.901 114.091 210.037 115.687 208.663 116.996L206.844 135.198H212.942L220.663 96.6209ZM186.155 98.2305L186.993 106.54C187.215 106.383 187.451 106.239 187.686 106.095C189.911 104.8 192.803 103.988 195.983 103.818V98.9895C193.025 98.9371 189.976 98.6754 186.155 98.2305ZM208.153 98.2697C204.358 98.7146 201.309 98.9502 198.338 99.0025V103.818C201.518 103.988 204.41 104.8 206.635 106.095C206.87 106.239 207.106 106.383 207.328 106.54L208.153 98.2697ZM197.161 106.147C193.876 106.147 190.919 106.933 188.877 108.137C186.823 109.327 185.776 110.819 185.776 112.298C185.776 113.777 186.823 115.268 188.877 116.459C190.919 117.663 193.876 118.448 197.161 118.448C200.445 118.448 203.403 117.663 205.444 116.459C207.498 115.268 208.545 113.777 208.545 112.298C208.545 110.819 207.498 109.327 205.444 108.137C203.403 106.933 200.445 106.147 197.161 106.147ZM188.21 118.788L189.859 135.198H195.983V120.778C193.038 120.621 190.356 119.914 188.21 118.788ZM206.098 118.788C203.952 119.914 201.27 120.621 198.338 120.778V135.198H204.463L206.098 118.788Z" fill="white"/>
</g>
<defs>
<filter id="filter0_d_1_21" x="0" y="6" width="206.055" height="99.8" filterUnits="userSpaceOnUse" color-interpolation-filters="sRGB">
<feFlood flood-opacity="0" result="BackgroundImageFix"/>
<feColorMatrix in="SourceAlpha" type="matrix" values="0 0 0 0 0 0 0 0 0 0 0 0 0 0 0 0 0 0 127 0" result="hardAlpha"/>
<feOffset dy="4"/>
<feGaussianBlur stdDeviation="2"/>
<feComposite in2="hardAlpha" operator="out"/>
<feColorMatrix type="matrix" values="0 0 0 0 0 0 0 0 0 0 0 0 0 0 0 0 0 0 1 0"/>
<feBlend mode="normal" in2="BackgroundImageFix" result="effect1_dropShadow_1_21"/>
<feBlend mode="normal" in="SourceGraphic" in2="effect1_dropShadow_1_21" result="shape"/>
</filter>
<filter id="filter1_d_1_21" x="12.8" y="87.88" width="163.339" height="66.72" filterUnits="userSpaceOnUse" color-interpolation-filters="sRGB">
<feFlood flood-opacity="0" result="BackgroundImageFix"/>
<feColorMatrix in="SourceAlpha" type="matrix" values="0 0 0 0 0 0 0 0 0 0 0 0 0 0 0 0 0 0 127 0" result="hardAlpha"/>
<feOffset dy="4"/>
<feGaussianBlur stdDeviation="2"/>
<feComposite in2="hardAlpha" operator="out"/>
<feColorMatrix type="matrix" values="0 0 0 0 0 0 0 0 0 0 0 0 0 0 0 0 0 0 1 0"/>
<feBlend mode="normal" in2="BackgroundImageFix" result="effect1_dropShadow_1_21"/>
<feBlend mode="normal" in="SourceGraphic" in2="effect1_dropShadow_1_21" result="shape"/>
</filter>
<filter id="filter2_d_1_21" x="169" y="74" width="57.5944" height="69.1982" filterUnits="userSpaceOnUse" color-interpolation-filters="sRGB">
<feFlood flood-opacity="0" result="BackgroundImageFix"/>
<feColorMatrix in="SourceAlpha" type="matrix" values="0 0 0 0 0 0 0 0 0 0 0 0 0 0 0 0 0 0 127 0" result="hardAlpha"/>
<feOffset dy="4"/>
<feGaussianBlur stdDeviation="2"/>
<feComposite in2="hardAlpha" operator="out"/>
<feColorMatrix type="matrix" values="0 0 0 0 0 0 0 0 0 0 0 0 0 0 0 0 0 0 1 0"/>
<feBlend mode="normal" in2="BackgroundImageFix" result="effect1_dropShadow_1_21"/>
<feBlend mode="normal" in="SourceGraphic" in2="effect1_dropShadow_1_21" result="shape"/>
</filter>
</defs>
</svg>
