<svg width="230" height="151" viewBox="0 0 230 151" fill="none" xmlns="http://www.w3.org/2000/svg">
<path d="M4.6875 97V24.2727H24.4318V53.6761H25.4261L47.3011 24.2727H70.3125L45.7386 56.6591L70.8807 97H47.3011L30.9659 69.7273L24.4318 78.25V97H4.6875ZM76.1719 97V24.2727H95.9162V52.6818H122.053V24.2727H141.797V97H122.053V68.5909H95.9162V97H76.1719ZM151.172 97V24.2727H203.587V40.1818H170.916V52.6818H200.888V68.5909H170.916V81.0909H203.445V97H151.172ZM171.058 17.4545L177.876 1.54545H194.638L183.984 17.4545H171.058Z" fill="#A855F7"/>
<path d="M44.2841 148.364V88.3636H54.3977V95.5795H54.9943C55.5246 94.5189 56.2727 93.392 57.2386 92.1989C58.2045 90.9867 59.5114 89.9545 61.1591 89.1023C62.8068 88.2311 64.9091 87.7955 67.4659 87.7955C70.8371 87.7955 73.8769 88.6572 76.5852 90.3807C79.3125 92.0852 81.4716 94.6136 83.0625 97.9659C84.6723 101.299 85.4773 105.39 85.4773 110.239C85.4773 115.03 84.6913 119.102 83.1193 122.455C81.5473 125.807 79.4072 128.364 76.6989 130.125C73.9905 131.886 70.9223 132.767 67.4943 132.767C64.9943 132.767 62.9205 132.35 61.2727 131.517C59.625 130.684 58.2992 129.68 57.2955 128.506C56.3106 127.312 55.5436 126.186 54.9943 125.125H54.5682V148.364H44.2841ZM54.3693 110.182C54.3693 113.004 54.767 115.475 55.5625 117.597C56.3769 119.718 57.5417 121.375 59.0568 122.568C60.5909 123.742 62.447 124.33 64.625 124.33C66.8977 124.33 68.8011 123.723 70.3352 122.511C71.8693 121.28 73.0246 119.604 73.8011 117.483C74.5966 115.343 74.9943 112.909 74.9943 110.182C74.9943 107.473 74.6061 105.068 73.8295 102.966C73.053 100.864 71.8977 99.2159 70.3636 98.0227C68.8295 96.8295 66.9167 96.233 64.625 96.233C62.428 96.233 60.5625 96.8106 59.0284 97.9659C57.4943 99.1212 56.3295 100.741 55.5341 102.824C54.7576 104.907 54.3693 107.36 54.3693 110.182ZM113.602 132.852C109.227 132.852 105.449 131.943 102.267 130.125C99.1042 128.288 96.6705 125.693 94.9659 122.341C93.2614 118.97 92.4091 115.002 92.4091 110.438C92.4091 105.949 93.2614 102.009 94.9659 98.6193C96.6894 95.2102 99.0947 92.5587 102.182 90.6648C105.269 88.7519 108.896 87.7955 113.062 87.7955C115.752 87.7955 118.29 88.2311 120.676 89.1023C123.081 89.9545 125.203 91.2803 127.04 93.0795C128.896 94.8788 130.354 97.1705 131.415 99.9545C132.475 102.72 133.006 106.015 133.006 109.841V112.994H97.2386V106.062H123.148C123.129 104.093 122.703 102.341 121.869 100.807C121.036 99.2538 119.871 98.0322 118.375 97.142C116.898 96.2519 115.174 95.8068 113.205 95.8068C111.102 95.8068 109.256 96.3182 107.665 97.3409C106.074 98.3447 104.833 99.6705 103.943 101.318C103.072 102.947 102.627 104.737 102.608 106.688V112.739C102.608 115.277 103.072 117.455 104 119.273C104.928 121.072 106.225 122.455 107.892 123.42C109.559 124.367 111.509 124.841 113.744 124.841C115.241 124.841 116.595 124.633 117.807 124.216C119.019 123.78 120.07 123.146 120.96 122.312C121.85 121.479 122.523 120.447 122.977 119.216L132.58 120.295C131.973 122.833 130.818 125.049 129.114 126.943C127.428 128.818 125.269 130.277 122.636 131.318C120.004 132.341 116.992 132.852 113.602 132.852ZM149.178 88.3636L157.984 104.472L166.933 88.3636H177.814L164.661 110.182L178.041 132H167.217L157.984 116.29L148.837 132H137.928L151.223 110.182L138.268 88.3636H149.178Z" fill="white"/>
<path d="M198.35 71.5374C196.138 71.8187 195.34 74.0996 194.463 75.9617C192.435 75.2983 189.399 74.4346 188.143 75.4383C187.842 75.7406 187.58 76.4001 187.488 77.3109C187.41 78.2204 187.475 79.3287 187.619 80.3795C187.815 81.7365 188.129 82.9889 188.313 83.6824C189.661 84.232 190.642 85.0826 191.165 86.0771C191.859 87.3596 191.82 88.9037 190.917 89.9898L189.111 88.4719C189.307 88.2363 189.412 87.7783 189.098 87.1895C187.737 85.7369 182.533 83.6693 180.733 85.4752C180.565 85.6715 180.381 86.1295 180.346 86.8361C180.312 87.5297 180.414 88.4064 180.58 89.2309C180.796 90.3432 181.057 91.1676 181.246 91.7172C195.431 93.7455 201.019 94.5176 208.504 94.0727C208.635 93.4838 208.871 92.5547 209.25 91.4816C209.852 89.8066 210.598 87.8568 212.26 86.8492C213.699 86.1295 215.257 86.3389 216.631 86.6529C216.932 85.8154 217.442 84.8994 218.057 84.4676C219.732 83.5123 221.826 84.1928 223.514 84.7162L222.546 86.4566C221.564 85.9594 220.308 85.7369 219.379 86.4174C218.554 87.0193 218.384 88.5635 217.979 89.4141C216.879 89.1654 214.524 88.3148 213.49 88.8645C212.914 89.1654 211.998 90.775 211.475 92.2668C211.265 92.8557 211.095 93.4184 210.964 93.9025C215.191 93.5361 220.255 92.8295 227.701 91.8088C228.526 90.8928 230.057 88.7598 229.926 87.7914C228.225 87.0979 226.275 87.3988 224.469 87.5035C225.202 86.1426 227.073 84.3105 226.916 82.7533C225.097 81.2864 221.551 81.6528 219.549 81.8229C219.379 80.0485 218.711 75.8963 217.429 75.1111C214.759 74.8246 212.496 76.2038 210.166 77.5294C209.813 76.1253 209.329 72.7635 208.086 72.4167C206.227 71.8985 204.526 72.9807 202.786 73.8326C201.189 72.7936 199.266 71.4196 198.35 71.5374ZM221.014 76.7534C221.263 77.5883 221.459 78.4938 221.603 79.317C222.938 79.3026 224.129 79.3444 225.346 79.5656C225.228 78.5802 225.032 77.2232 224.234 76.6409C223.108 76.175 222.035 76.425 221.014 76.7534ZM198.153 77.2952C200.155 78.0947 200.784 80.441 201.15 82.2168C202.668 81.552 204.657 80.9763 206.005 81.7379C207.955 83.159 208.099 86.1818 208.086 88.1316L205.73 88.0793C205.665 86.7707 205.678 85.6584 205.22 84.4152C205.023 83.8133 204.644 83.6693 204.107 83.7348C202.367 84.0096 200.849 84.9518 199.292 85.8416C199.056 84.1143 199.148 79.9372 197.473 79.5473C195.837 79.1665 194.358 81.2812 193.194 82.6094L191.388 81.0875C192.932 79.4818 195.706 76.6055 198.153 77.2952ZM182.466 80.5483C182.41 81.1516 182.466 81.9184 182.585 82.6879C183.693 82.701 184.714 82.858 185.735 83.0543C185.421 81.6842 185.224 80.462 185.12 79.1625C183.735 78.8655 182.619 79.0487 182.466 80.5483ZM180.983 94.0596L188.718 132.729H194.816L192.997 114.526C191.623 113.217 190.76 111.621 190.76 109.828C190.76 108.441 191.283 107.172 192.147 106.059L191.087 95.4598C188.221 95.0803 184.937 94.6223 180.983 94.0596ZM228.002 94.1512C224.05 94.7008 220.766 95.1457 217.9 95.5121L216.853 106.059C217.717 107.159 218.24 108.441 218.24 109.828C218.24 111.621 217.377 113.217 216.003 114.526L214.184 132.729H220.282L228.002 94.1512ZM193.495 95.7607L194.332 104.07C194.555 103.913 194.79 103.769 195.026 103.625C197.25 102.33 200.142 101.519 203.322 101.348V96.5197C200.365 96.4674 197.316 96.2057 193.495 95.7607ZM215.492 95.8C211.697 96.2449 208.648 96.4805 205.678 96.5328V101.348C208.858 101.519 211.75 102.33 213.974 103.625C214.21 103.769 214.445 103.913 214.668 104.07L215.492 95.8ZM204.5 103.678C201.215 103.678 198.258 104.463 196.217 105.667C194.162 106.858 193.115 108.349 193.115 109.828C193.115 111.307 194.162 112.799 196.217 113.989C198.258 115.193 201.215 115.979 204.5 115.979C207.785 115.979 210.742 115.193 212.783 113.989C214.838 112.799 215.885 111.307 215.885 109.828C215.885 108.349 214.838 106.858 212.783 105.667C210.742 104.463 207.785 103.678 204.5 103.678ZM195.549 116.319L197.198 132.729H203.322V118.308C200.378 118.151 197.695 117.444 195.549 116.319ZM213.438 116.319C211.292 117.444 208.609 118.151 205.678 118.308V132.729H211.802L213.438 116.319Z" fill="white"/>
</svg>
